<svg width="21" height="21" viewBox="0 0 21 21" fill="none" xmlns="http://www.w3.org/2000/svg">
<g clip-path="url(#clip0_1_14)">
<path d="M18.2199 14.63C18.2199 15.88 17.857 16.887 17.132 17.572C16.405 18.258 15.398 18.622 14.188 18.622H5.96195C4.75195 18.622 3.74395 18.258 3.01795 17.572C2.29295 16.847 1.92795 15.839 1.92795 14.589V6.322C1.92795 5.112 5.19195 1.202 5.91695 0.476C2.41195 0.478 0.0749512 2.816 0.0749512 6.322V14.588C0.0749512 16.322 0.638951 17.815 1.76795 18.903C2.85695 19.951 4.30795 20.476 5.96195 20.476H14.188C15.921 20.476 17.3729 19.911 18.4209 18.903C19.51 17.855 20.075 16.363 20.075 14.629V6.322C20.075 4.629 19.51 3.177 18.462 2.129C17.4139 1.04 15.92 0.476 14.228 0.476H5.91995L3.01795 3.38C3.70395 2.694 4.75195 2.331 5.96195 2.331H14.268C15.478 2.331 16.486 2.694 17.212 3.421C17.898 4.146 18.2999 5.154 18.2999 6.323V14.63H18.2199ZM15.357 6.443C15.5133 6.44757 15.6689 6.42073 15.8147 6.36407C15.9605 6.3074 16.0934 6.22206 16.2056 6.11311C16.3178 6.00415 16.4069 5.87379 16.4679 5.72974C16.5288 5.5857 16.5601 5.43089 16.5601 5.2745C16.5601 5.11811 16.5288 4.9633 16.4679 4.81926C16.4069 4.67521 16.3178 4.54485 16.2056 4.43589C16.0934 4.32693 15.9605 4.2416 15.8147 4.18493C15.6689 4.12827 15.5133 4.10143 15.357 4.106C15.053 4.11489 14.7644 4.2419 14.5525 4.46007C14.3407 4.67823 14.2221 4.97038 14.2221 5.2745C14.2221 5.57862 14.3407 5.87077 14.5525 6.08893C14.7644 6.3071 15.053 6.43411 15.357 6.443ZM10.075 13.783C9.1991 13.7791 8.36024 13.4294 7.74091 12.81C7.12158 12.1907 6.7719 11.3519 6.76795 10.476C6.7719 9.60014 7.12158 8.76129 7.74091 8.14196C8.36024 7.52263 9.1991 7.17295 10.075 7.169C10.9508 7.17295 11.7897 7.52263 12.409 8.14196C13.0283 8.76129 13.378 9.60014 13.382 10.476C13.3777 11.3517 13.0279 12.1903 12.4086 12.8094C11.7893 13.4285 10.9506 13.7781 10.075 13.782V13.783ZM10.075 5.315C7.25295 5.315 4.91395 7.613 4.91395 10.476C4.9121 11.1543 5.04434 11.8262 5.30305 12.4532C5.56176 13.0802 5.94184 13.6499 6.42145 14.1295C6.90106 14.6091 7.47074 14.9892 8.09774 15.2479C8.72473 15.5066 9.39668 15.6388 10.075 15.637C12.938 15.637 15.235 13.298 15.235 10.477C15.235 7.653 12.897 5.315 10.075 5.315Z" fill="black"/>
</g>
<defs>
<clipPath id="clip0_1_14">
<rect width="21" height="20" fill="white" transform="translate(0 0.5)"/>
</clipPath>
</defs>
</svg>
